#!OML:ASF H:\MichaelJackson\Top Level 1\Subject 1\Session 1\male.ASF
:FULLY-SPECIFIED
:DEGREES
741
root 5.18293 16.5652 -1.71371 10.4772 2.63027 5.76936
lowerback 0.76222 1.64628 -8.60328
upperback 3.21195 2.29842 -0.988979
thorax 2.61868 0.947297 3.81812
lowerneck -10.741 -3.58355 1.9084
upperneck 40.6327 -5.85499 -0.130511
head 16.2867 -2.10652 -1.33766
rclavicle -3.18055e-015 2.98177e-015
rhumerus -17.062 39.0372 -87.2925
rradius 134.258
rwrist -19.3391
rhand -44.5053 -60.3774
rfingers 7.12502
rthumb -17.3076 270.373
lclavicle -3.18055e-015 2.98177e-015
lhumerus -55.8032 -9.46065 92.5466
lradius 46.3817
lwrist 5.45877
lhand -1.5661 10.1353
lfingers 7.12502
lthumb 24.0895 38.6432
rfemur -46.5153 -2.30329 13.6193
rtibia 73.0194
rfoot 5.29478 9.35477
rtoes 20.4374
lfemur -19.8958 6.43482 -31.4752
ltibia 38.2725
lfoot -24.0765 -9.03357
ltoes 36.0937
742
root 5.1792 16.5825 -1.67092 10.3238 2.32618 5.66788
lowerback 0.832418 1.75008 -8.70691
upperback 3.22682 2.43011 -0.973998
thorax 2.57385 1.01145 3.88954
lowerneck -10.758 -3.57239 1.9347
upperneck 40.6754 -5.83239 -0.171018
head 16.3109 -2.09763 -1.35801
rclavicle 2.1419e-014 -1.44119e-014
rhumerus -16.9154 39.1338 -87.1241
rradius 134.249
rwrist -19.4412
rhand -44.5053 -60.3517
rfingers 7.12502
rthumb -17.3076 270.399
lclavicle 2.1419e-014 -1.44119e-014
lhumerus -55.8591 -9.3167 92.4053
lradius 46.6129
lwrist 5.65648
lhand -2.42541 9.93033
lfingers 7.12502
lthumb 23.2653 38.5448
rfemur -46.8148 -2.12726 13.6794
rtibia 73.4044
rfoot 6.8255 9.6231
rtoes 21.9819
lfemur -19.4278 6.87189 -31.3619
ltibia 37.8897
lfoot -23.9791 -9.03909
ltoes 35.864
743
root 5.1755 16.6037 -1.62806 10.1324 2.01207 5.51243
lowerback 0.936473 1.84826 -8.77753
upperback 3.25891 2.55058 -0.929216
thorax 2.52871 1.06999 3.97229
lowerneck -10.7889 -3.5502 1.96142
upperneck 40.7132 -5.79004 -0.222468
head 16.3356 -2.08219 -1.38046
rclavicle -2.0276e-014 1.46107e-014
rhumerus -16.7693 39.244 -86.9331
rradius 134.252
rwrist -19.516
rhand -44.5137 -60.3496
rfingers 7.12502
rthumb -17.3157 270.402
lclavicle -2.0276e-014 1.46107e-014
lhumerus -55.9759 -9.16579 92.3028
lradius 46.9107
lwrist 5.95741
lhand -3.3 9.71087
lfingers 7.12502
lthumb 22.426 38.429
rfemur -47.107 -1.92187 13.7876
rtibia 73.7897
rfoot 8.44176 9.91269
rtoes 24.0675
lfemur -18.9073 7.28897 -31.1833
ltibia 37.4791
lfoot -23.8571 -8.99113
ltoes 35.5713
744
root 5.17192 16.6288 -1.58459 9.91283 1.71324 5.29501
lowerback 1.06142 1.93318 -8.80238
upperback 3.30481 2.65083 -0.849298
thorax 2.48846 1.11852 4.06527
lowerneck -10.8272 -3.51653 1.98621
upperneck 40.7482 -5.7279 -0.280768
head 16.3608 -2.05999 -1.40263
rclavicle 3.8117e-014 4.87022e-015
rhumerus -16.6339 39.3666 -86.7286
rradius 134.265
rwrist -19.5585
rhand -44.5268 -60.3746
rfingers 7.12502
rthumb -17.3282 270.378
lclavicle 3.8117e-014 4.87022e-015
lhumerus -56.1633 -9.0179 92.2457
lradius 47.2673
lwrist 6.31313
lhand -4.12394 9.45848
lfingers 7.12502
lthumb 21.6349 38.2698
rfemur -47.3601 -1.71586 13.9655
rtibia 74.1526
rfoot 10.0091 10.1988
rtoes 26.5026
lfemur -18.3489 7.64978 -30.9284
ltibia 37.0602
lfoot -23.7127 -8.87087
ltoes 35.1952
745
root 5.16863 16.6575 -1.54017 9.68197 1.44984 5.01274
lowerback 1.19031 1.99599 -8.77163
upperback 3.35934 2.72075 -0.731823
thorax 2.45901 1.15213 4.16624
lowerneck -10.8655 -3.47145 2.0032
upperneck 40.7835 -5.64523 -0.343296
head 16.3865 -2.03123 -1.42204
rclavicle 5.84924e-014 -2.36554e-014
rhumerus -16.5123 39.5138 -86.5216
rradius 134.285
rwrist -19.5471
rhand -44.5352 -60.4514
rfingers 7.12502
rthumb -17.3363 270.302
lclavicle 5.84924e-014 -2.36554e-014
lhumerus -56.4152 -8.86536 92.2298
lradius 47.6656
lwrist 6.66393
lhand -4.83573 9.19624
lfingers 7.12502
lthumb 20.9512 38.0847
rfemur -47.553 -1.53208 14.2256
rtibia 74.465
rfoot 11.3519 10.4974
rtoes 28.8754
lfemur -17.7807 7.91406 -30.5957
ltibia 36.6592
lfoot -23.5405 -8.65957
ltoes 34.7181
746
root 5.16606 16.6897 -1.49454 9.46051 1.23214 4.65275
lowerback 1.29721 2.03442 -8.6638
upperback 3.41706 2.75983 -0.572771
thorax 2.45011 1.17079 4.26851
lowerneck -10.8964 -3.4169 2.00693
upperneck 40.8242 -5.54517 -0.404842
head 16.4144 -1.99718 -1.43583
rclavicle 4.07509e-015 1.30204e-014
rhumerus -16.3985 39.6667 -86.3092
rradius 134.303
rwrist -19.5422
rhand -44.554 -60.5244
rfingers 7.12502
rthumb -17.3545 270.23
lclavicle 4.07509e-015 1.30204e-014
lhumerus -56.7226 -8.70636 92.2546
lradius 48.0904
lwrist 6.96676
lhand -5.37717 8.89504
lfingers 7.12502
lthumb 20.431 37.8402
rfemur -47.6743 -1.38004 14.5864
rtibia 74.6939
rfoot 12.3368 10.8123
rtoes 30.8959
lfemur -17.2418 8.04702 -30.1779
ltibia 36.313
lfoot -23.3354 -8.3287
ltoes 34.0915
747
root 5.16426 16.7258 -1.44749 9.25869 1.0724 4.21365
lowerback 1.37962 2.04439 -8.47289
upperback 3.47137 2.76258 -0.37004
thorax 2.45728 1.17229 4.37102
lowerneck -10.9173 -3.35383 1.99615
upperneck 40.8795 -5.42621 -0.47213
head 16.4485 -1.95804 -1.4466
rclavicle 1.20762e-014 -8.34896e-015
rhumerus -16.2966 39.8413 -86.1004
rradius 134.313
rwrist -19.5241
rhand -44.5736 -60.596
rfingers 7.12502
rthumb -17.3733 270.16
lclavicle 1.20762e-014 -8.34896e-015
lhumerus -57.0838 -8.5265 92.3116
lradius 48.5376
lwrist 7.19981
lhand -5.71173 8.56887
lfingers 7.12502
lthumb 20.1095 37.5481
rfemur -47.703 -1.26325 15.05
rtibia 74.7996
rfoot 12.8831 11.1302
rtoes 32.4227
lfemur -16.7672 8.0287 -29.6764
ltibia 36.0657
lfoot -23.0748 -7.86407
ltoes 33.3075
748
root 5.16338 16.7658 -1.39921 9.09084 0.965135 3.68951
lowerback 1.42575 2.03216 -8.19193
upperback 3.51786 2.73812 -0.121392
thorax 2.48153 1.16148 4.47245
lowerneck -10.9257 -3.28669 1.96844
upperneck 40.9518 -5.29368 -0.545963
head 16.4894 -1.91636 -1.45508
rclavicle 5.28767e-014 -4.27387e-014
rhumerus -16.216 40.0356 -85.9034
rradius 134.315
rwrist -19.502
rhand -44.6 -60.671
rfingers 7.12502
rthumb -17.3987 270.088
lclavicle 5.28767e-014 -4.27387e-014
lhumerus -57.4733 -8.32013 92.4007
lradius 48.9898
lwrist 7.36353
lhand -5.83597 8.27045
lfingers 7.12502
lthumb 19.99 37.2622
rfemur -47.6343 -1.16562 15.62
rtibia 74.7391
rfoot 12.9689 11.4398
rtoes 33.335
lfemur -16.4031 7.86401 -29.0915
ltibia 35.9675
lfoot -22.7369 -7.27497
ltoes 32.3419
749
root 5.16349 16.81 -1.35009 8.95942 0.900779 3.0859
lowerback 1.43178 2.0097 -7.82529
upperback 3.55932 2.70253 0.17063
thorax 2.52571 1.14618 4.57251
lowerneck -10.9215 -3.2248 1.92765
upperneck 41.0406 -5.16184 -0.627625
head 16.5364 -1.87749 -1.46478
rclavicle 1.7344e-014 -8.54774e-015
rhumerus -16.1521 40.2257 -85.7099
rradius 134.304
rwrist -19.4861
rhand -44.6366 -60.6926
rfingers 7.12502
rthumb -17.434 270.069
lclavicle 1.7344e-014 -8.54774e-015
lhumerus -57.8599 -8.08717 92.518
lradius 49.4306
lwrist 7.47873
lhand -5.76646 8.01931
lfingers 7.12502
lthumb 20.0568 37.0041
rfemur -47.4571 -1.06972 16.287
rtibia 74.4689
rfoot 12.6318 11.7312
rtoes 33.6138
lfemur -16.1853 7.57522 -28.4322
ltibia 36.0691
lfoot -22.2881 -6.59016
ltoes 31.2121
750
root 5.16438 16.8587 -1.30074 8.86445 0.868018 2.41339
lowerback 1.41043 1.98512 -7.3863
upperback 3.59389 2.66483 0.501747
thorax 2.57925 1.13117 4.67335
lowerneck -10.9058 -3.17235 1.87961
upperneck 41.1451 -5.03549 -0.724684
head 16.5888 -1.8435 -1.4809
rclavicle -1.05356e-014 -1.78906e-014
rhumerus -16.1166 40.4081 -85.5337
rradius 134.284
rwrist -19.4779
rhand -44.6877 -60.6743
rfingers 7.12502
rthumb -17.4831 270.092
lclavicle -1.05356e-014 -1.78906e-014
lhumerus -58.2326 -7.82504 92.6566
lradius 49.8613
lwrist 7.5851
lhand -5.54165 7.83963
lfingers 7.12502
lthumb 20.2729 36.8016
rfemur -47.1664 -0.950946 17.0351
rtibia 73.9497
rfoot 11.9532 11.9945
rtoes 33.306
lfemur -16.149 7.20024 -27.7093
ltibia 36.4209
lfoot -21.7054 -5.85392
ltoes 29.8972
751
root 5.16558 16.9122 -1.25156 8.79457 0.856972 1.68443
lowerback 1.37728 1.9705 -6.89223
upperback 3.62647 2.63966 0.866483
thorax 2.63626 1.12356 4.77824
lowerneck -10.8813 -3.13623 1.82594
upperneck 41.2593 -4.92753 -0.831171
head 16.6441 -1.81869 -1.50314
rclavicle 2.31584e-014 -1.53064e-014
rhumerus -16.1193 40.5691 -85.3771
rradius 134.261
rwrist -19.4501
rhand -44.7365 -60.6198
rfingers 7.12502
rthumb -17.5301 270.151
lclavicle 2.31584e-014 -1.53064e-014
lhumerus -58.5753 -7.55011 92.8196
lradius 50.2797
lwrist 7.724
lhand -5.22239 7.74037
lfingers 7.12502
lthumb 20.5797 36.6695
rfemur -46.7452 -0.786341 17.8487
rtibia 73.1504
rfoot 11.0272 12.2411
rtoes 32.4922
lfemur -16.3152 6.78174 -26.9289
ltibia 37.07
lfoot -20.9517 -5.12902
ltoes 28.457
